<?xml version="1.0" encoding="UTF-8" standalone="no"?>
<!-- Uploaded to: SVG Repo, www.svgrepo.com, Generator: SVG Repo Mixer Tools -->

<svg
   width="800px"
   height="800px"
   viewBox="0 0 24 24"
   data-name="025_SCIENCE"
   id="_025_SCIENCE"
   version="1.1"
   sodipodi:docname="LOGO.svg"
   inkscape:version="1.4.2 (f4327f4, 2025-05-13)"
   inkscape:export-filename="logo.png"
   inkscape:export-xdpi="96"
   inkscape:export-ydpi="96"
   xmlns:inkscape="http://www.inkscape.org/namespaces/inkscape"
   xmlns:sodipodi="http://sodipodi.sourceforge.net/DTD/sodipodi-0.dtd"
   xmlns="http://www.w3.org/2000/svg"
   xmlns:svg="http://www.w3.org/2000/svg">
  <sodipodi:namedview
     id="namedview9"
     pagecolor="#ffffff"
     bordercolor="#000000"
     borderopacity="0.25"
     inkscape:showpageshadow="2"
     inkscape:pageopacity="0.0"
     inkscape:pagecheckerboard="0"
     inkscape:deskcolor="#d1d1d1"
     showgrid="false"
     inkscape:zoom="0.70003571"
     inkscape:cx="418.55007"
     inkscape:cy="352.12489"
     inkscape:window-width="1920"
     inkscape:window-height="1171"
     inkscape:window-x="-9"
     inkscape:window-y="-9"
     inkscape:window-maximized="1"
     inkscape:current-layer="_025_SCIENCE" />
  <defs
     id="defs1">
    <style
       id="style1">.cls-1{fill:#333;}</style>
  </defs>
  <path
     class="cls-1"
     d="M16,13H8a3,3,0,0,1-3-3V6A3,3,0,0,1,8,3h8a3,3,0,0,1,3,3v4A3,3,0,0,1,16,13ZM8,5A1,1,0,0,0,7,6v4a1,1,0,0,0,1,1h8a1,1,0,0,0,1-1V6a1,1,0,0,0-1-1Z"
     id="path1"
     style="fill:#000000;fill-opacity:1" />
  <path
     class="cls-1"
     d="M10,9a1.05,1.05,0,0,1-.71-.29A1,1,0,0,1,10.19,7a.6.6,0,0,1,.19.06.56.56,0,0,1,.17.09l.16.12A1,1,0,0,1,10,9Z"
     id="path2"
     style="fill:#000000;fill-opacity:1" />
  <path
     class="cls-1"
     d="M14,9a1,1,0,0,1-.71-1.71,1,1,0,0,1,1.42,1.42,1,1,0,0,1-.16.12.56.56,0,0,1-.17.09.6.6,0,0,1-.19.06Z"
     id="path3"
     style="fill:#000000;fill-opacity:1" />
  <path
     class="cls-1"
     d="M12,4a1,1,0,0,1-1-1V2a1,1,0,0,1,2,0V3A1,1,0,0,1,12,4Z"
     id="path4"
     style="fill:#000000;fill-opacity:1" />
  <path
     class="cls-1"
     d="M9,22a1,1,0,0,1-1-1V18a1,1,0,0,1,2,0v3A1,1,0,0,1,9,22Z"
     id="path5"
     style="fill:#000000;fill-opacity:1" />
  <path
     class="cls-1"
     d="M15,22a1,1,0,0,1-1-1V18a1,1,0,0,1,2,0v3A1,1,0,0,1,15,22Z"
     id="path6"
     style="fill:#000000;fill-opacity:1" />
  <path
     d="M 9,10.99998 A 1,1 0 0 0 7.9999805,12 v 1.38498 l -3.45,1.725 A 1,1 0 0 0 4.11,16.45002 a 1,1 0 0 0 0.8899805,0.54996 0.93,0.93 0 0 0 0.45,-0.10998 l 2.55,-1.275 V 18 A 1,1 0 0 0 9,19.00002 h 6 A 1,1 0 0 0 16.00002,18 v -2.385 l 2.55,1.275 a 0.93,0.93 0 0 0 0.45,0.10998 1,1 0 0 0 0.88998,-0.54996 1,1 0 0 0 -0.43998,-1.34004 l -3.45,-1.725 V 12 A 1,1 0 0 0 15,10.99998 Z m 1.00002,2.00004 h 3.99996 v 0.610664 0.712324 2.676972 h -3.99996 v -2.676972 -0.712324 z"
     id="path10"
     style="" />
</svg>
